<?xml version="1.0" encoding="UTF-8" standalone="no" ?>
<!DOCTYPE svg PUBLIC "-//W3C//DTD SVG 1.1//EN" "http://www.w3.org/Graphics/SVG/1.1/DTD/svg11.dtd">
<svg xmlns="http://www.w3.org/2000/svg" xmlns:xlink="http://www.w3.org/1999/xlink" version="1.1" width="400" height="400" viewBox="0 0 400 400" xml:space="preserve">
<desc>Created with Fabric.js 3.6.2</desc>
<defs>
</defs>
<g transform="matrix(0.42 0 0 0.42 200 200)"  >
<path style="stroke: none; stroke-width: 1; stroke-dasharray: none; stroke-linecap: butt; stroke-dashoffset: 0; stroke-linejoin: miter; stroke-miterlimit: 4; fill: rgb(255,255,255); fill-rule: nonzero; opacity: 1;"  transform=" translate(-256, -256)" d="M 467 176 a 29.94 29.94 0 0 0 -25.32 12.5 a 2 2 0 0 1 -3.64 -1.14 V 150.71 c 0 -20.75 -16.34 -38.21 -37.08 -38.7 A 38 38 0 0 0 362 150 v 82 a 2 2 0 0 1 -2 2 H 152 a 2 2 0 0 1 -2 -2 V 150.71 c 0 -20.75 -16.34 -38.21 -37.08 -38.7 A 38 38 0 0 0 74 150 v 37.38 a 2 2 0 0 1 -3.64 1.14 A 29.94 29.94 0 0 0 45 176 c -16.3 0.51 -29 14.31 -29 30.62 v 98.72 c 0 16.31 12.74 30.11 29 30.62 a 29.94 29.94 0 0 0 25.32 -12.5 A 2 2 0 0 1 74 324.62 v 36.67 C 74 382 90.34 399.5 111.08 400 A 38 38 0 0 0 150 362 V 280 a 2 2 0 0 1 2 -2 H 360 a 2 2 0 0 1 2 2 v 81.29 c 0 20.75 16.34 38.21 37.08 38.7 A 38 38 0 0 0 438 362 V 324.62 a 2 2 0 0 1 3.64 -1.14 A 29.94 29.94 0 0 0 467 336 c 16.3 -0.51 29 -14.31 29 -30.62 V 206.64 C 496 190.33 483.26 176.53 467 176 Z" stroke-linecap="round" />
</g>
</svg>