<?xml version="1.0" encoding="iso-8859-1"?>
<!-- Generator: Adobe Illustrator 18.1.1, SVG Export Plug-In . SVG Version: 6.00 Build 0)  -->
<svg version="1.1" id="Capa_1" xmlns="http://www.w3.org/2000/svg" xmlns:xlink="http://www.w3.org/1999/xlink" x="0px" y="0px"
	 viewBox="0 0 482.754 482.754" style="enable-background:new 0 0 482.754 482.754;" xml:space="preserve">
<g>
	<g>
		<g>
			<path d="M416.941,216.222H338.24v-36.324v-1.768H47.651v1.768v242.157v12.108h0.702c6.441,53.953,57.875,48.431,120.376,48.431
				h48.431c62.525,0,113.959,5.521,120.376-48.431h0.702v-12.108V347.64h78.701c10.05,0,18.162-7.87,18.162-17.629v-96.185
				C435.102,224.092,426.99,216.222,416.941,216.222z M410.887,310.203c0,7.313-6.756,13.222-15.135,13.222H338.24v-82.987h57.512
				c8.379,0,15.135,5.909,15.135,13.222V310.203z"/>
		</g>
		<g>
			<path d="M155.266,153.915l-7.555-9.468c8.136-6.514,27.993-26.686,22.327-41.554c-2.373-6.296-6.345-10.485-10.534-14.917
				c-5.158-5.449-10.994-11.599-13.851-21.939C138.46,40.004,167.713,4.02,171.055,0l9.299,7.749
				c-7.991,9.589-27.703,38.14-23.029,55.066c2.034,7.434,6.175,11.769,10.97,16.83c4.601,4.843,9.807,10.364,13.076,18.937
				C191.299,124.759,156.743,152.728,155.266,153.915z"/>
		</g>
		<g>
			<path d="M215.49,141.807l-7.555-9.468c4.746-3.802,17.605-16.66,14.263-25.402c-1.453-3.85-3.85-6.393-6.611-9.299
				c-3.584-3.802-7.676-8.112-9.71-15.474c-5.061-18.38,15.038-43.104,17.338-45.865l9.299,7.749
				c-7.144,8.572-17.508,25.62-14.965,34.871c1.235,4.456,3.705,7.047,6.829,10.364c3.196,3.39,6.829,7.216,9.154,13.319
				C240.554,121.103,218.081,139.749,215.49,141.807z"/>
		</g>
	</g>
</g>
<g>
</g>
<g>
</g>
<g>
</g>
<g>
</g>
<g>
</g>
<g>
</g>
<g>
</g>
<g>
</g>
<g>
</g>
<g>
</g>
<g>
</g>
<g>
</g>
<g>
</g>
<g>
</g>
<g>
</g>
</svg>
