<?xml version="1.0" standalone="no"?>
<!DOCTYPE svg PUBLIC "-//W3C//DTD SVG 20010904//EN"
 "http://www.w3.org/TR/2001/REC-SVG-20010904/DTD/svg10.dtd">
<svg version="1.0" xmlns="http://www.w3.org/2000/svg"
 width="512.000000pt" height="512.000000pt" viewBox="0 0 512.000000 512.000000"
 preserveAspectRatio="xMidYMid meet">

<g transform="translate(0.000000,512.000000) scale(0.100000,-0.100000)"
fill="#e93478" stroke="none">
<path d="M2387 5105 c-240 -46 -461 -172 -604 -345 l-57 -69 -620 -3 -621 -3
-67 -33 c-121 -59 -209 -171 -237 -300 -8 -38 -11 -598 -11 -2010 0 -2140 -3
-2013 57 -2124 31 -57 113 -138 171 -167 105 -54 -5 -51 2159 -51 1444 0 2017
3 2055 11 112 24 228 109 281 207 60 111 57 -16 57 2124 0 1412 -3 1972 -11
2010 -28 129 -116 241 -237 300 l-67 33 -621 3 -620 3 -57 69 c-123 148 -325
275 -522 326 -127 33 -312 41 -428 19z m318 -170 c364 -64 637 -343 700 -717
l6 -38 -174 0 -175 0 -7 38 c-11 63 -63 158 -117 218 l-52 56 23 42 c71 126
82 151 76 176 -14 54 -65 81 -116 59 -21 -8 -44 -37 -80 -101 -48 -84 -53 -89
-77 -83 -210 53 -385 5 -527 -142 -52 -54 -110 -161 -120 -222 l-7 -41 -174 0
-175 0 6 38 c82 483 518 799 990 717z m-1095 -461 c-35 -81 -63 -207 -67 -309
-5 -90 -3 -103 15 -125 l20 -25 982 0 982 0 20 25 c19 23 20 35 15 130 -6 106
-30 219 -66 304 l-20 46 542 0 c415 -1 550 -4 578 -14 56 -20 103 -61 135
-118 l29 -53 3 -247 3 -248 -2221 0 -2221 0 3 248 3 247 29 53 c32 57 79 98
135 118 28 10 163 13 578 14 l542 0 -19 -46z m1033 -49 c112 -29 209 -119 241
-222 l7 -23 -331 0 -331 0 7 23 c19 64 87 149 149 187 36 22 126 48 170 49 17
1 56 -6 88 -14z m2137 -2133 c0 -1561 6 -1447 -80 -1532 -86 -87 103 -80
-2140 -80 -2243 0 -2054 -7 -2140 80 -86 85 -80 -29 -80 1532 l0 1378 2220 0
2220 0 0 -1378z m-4322 -1755 l57 -22 2045 0 2045 0 57 22 c32 12 72 31 89 44
l32 22 -5 -124 c-5 -136 -14 -167 -72 -227 -17 -19 -49 -43 -71 -55 l-40 -22
-2035 0 -2035 0 -40 22 c-47 25 -96 74 -121 123 -14 27 -19 64 -22 159 l-4
124 31 -22 c17 -13 57 -32 89 -44z"/>
<path d="M2477 3494 c-4 -4 -7 -43 -7 -86 l0 -78 90 0 91 0 -3 83 -3 82 -80 3
c-45 1 -84 0 -88 -4z"/>
<path d="M552 3403 c-32 -13 -42 -61 -42 -198 l0 -135 85 0 85 0 0 85 0 85 85
0 85 0 0 85 0 85 -142 -1 c-79 0 -149 -3 -156 -6z"/>
<path d="M4270 3325 l0 -85 85 0 85 0 0 -85 0 -85 85 0 85 0 0 136 c0 202 -1
203 -197 204 l-143 0 0 -85z"/>
<path d="M1400 3320 c-194 -34 -355 -169 -430 -360 l-25 -65 -3 -724 c-2 -499
1 -741 8 -777 49 -235 284 -397 528 -363 173 24 328 159 382 334 8 26 15 155
20 375 8 381 13 416 91 657 84 261 96 394 49 544 -79 258 -353 425 -620 379z
m236 -191 c71 -27 165 -113 199 -183 60 -123 55 -244 -20 -476 -91 -282 -105
-374 -105 -727 0 -291 -7 -341 -53 -410 -132 -195 -415 -176 -519 36 l-23 46
0 726 0 725 38 76 c90 182 289 259 483 187z"/>
<path d="M3510 3315 c-273 -62 -456 -312 -436 -594 7 -98 22 -160 76 -326 75
-228 81 -271 90 -650 5 -219 12 -354 20 -380 53 -174 209 -309 385 -334 237
-34 460 114 520 344 22 88 22 1428 0 1524 -57 240 -261 411 -508 426 -53 3
-105 0 -147 -10z m203 -170 c124 -32 207 -100 260 -213 l32 -67 0 -725 0 -725
-23 -46 c-66 -135 -212 -199 -360 -160 -89 24 -180 125 -201 221 -6 29 -11
162 -11 312 0 350 -14 448 -106 730 -91 282 -80 425 43 558 100 108 232 150
366 115z"/>
<path d="M2477 3154 c-4 -4 -7 -43 -7 -86 l0 -78 90 0 91 0 -3 83 -3 82 -80 3
c-45 1 -84 0 -88 -4z"/>
<path d="M2477 2814 c-4 -4 -7 -43 -7 -86 l0 -78 90 0 91 0 -3 83 -3 82 -80 3
c-45 1 -84 0 -88 -4z"/>
<path d="M2472 2388 l3 -83 85 0 85 0 3 83 3 82 -91 0 -91 0 3 -82z"/>
<path d="M2472 2048 l3 -83 85 0 85 0 3 83 3 82 -91 0 -91 0 3 -82z"/>
<path d="M2472 1708 l3 -83 85 0 85 0 3 83 3 82 -91 0 -91 0 3 -82z"/>
<path d="M2470 1365 l0 -85 90 0 90 0 0 85 0 85 -90 0 -90 0 0 -85z"/>
<path d="M4438 1108 l-3 -83 -108 -5 c-94 -4 -111 -8 -123 -25 -35 -47 -23
-107 26 -132 38 -20 292 -18 331 2 42 22 49 49 49 196 l0 129 -85 0 -84 0 -3
-82z"/>
<path d="M510 971 c0 -135 1 -140 26 -170 l26 -31 144 0 144 0 0 85 0 85 -85
0 -85 0 0 85 0 85 -85 0 -85 0 0 -139z"/>
<path d="M2477 1104 c-4 -4 -7 -43 -7 -86 l0 -78 90 0 91 0 -3 83 -3 82 -80 3
c-45 1 -84 0 -88 -4z"/>
</g>
</svg>
