<?xml version="1.0" encoding="iso-8859-1"?>
<!-- Uploaded to: SVG Repo, www.svgrepo.com, Generator: SVG Repo Mixer Tools -->
<svg fill="#000000" height="800px" width="800px" version="1.1" id="Capa_1" xmlns="http://www.w3.org/2000/svg" xmlns:xlink="http://www.w3.org/1999/xlink" 
	 viewBox="0 0 490 490" xml:space="preserve">
<g id="line_20_">
	<path d="M245,490c120.595,0,218.693-98.328,218.693-219.182c0-55.125-20.568-105.428-54.222-143.979l17.477-17.584l15.748,14.08
		l20.385-22.818l-56.38-50.38l-20.385,22.818l17.768,15.87l-16.283,16.375c-34.709-30.133-78.907-49.386-127.497-52.783V30.608
		h45.59V0H184.121v30.608h45.575v21.808C116.248,60.343,26.307,155.135,26.307,270.802C26.307,391.672,124.405,490,245,490z
		 M245,82.243c103.699,0,188.085,84.585,188.085,188.559c0,103.99-84.386,188.575-188.085,188.575S56.915,374.792,56.915,270.802
		C56.915,166.828,141.301,82.243,245,82.243z"/>
	<polygon points="387.449,338.078 260.334,237.562 260.334,113.83 229.727,113.83 229.727,252.376 368.457,362.075 	"/>
</g>
</svg>