<?xml version="1.0" encoding="utf-8"?>
<!-- Svg Vector Icons : http://www.onlinewebfonts.com/icon -->
<!DOCTYPE svg PUBLIC "-//W3C//DTD SVG 1.1//EN" "http://www.w3.org/Graphics/SVG/1.1/DTD/svg11.dtd">
<svg version="1.1" xmlns="http://www.w3.org/2000/svg" xmlns:xlink="http://www.w3.org/1999/xlink" x="0px" y="0px" fill="#f60e50" viewBox="0 0 1000 1000" enable-background="new 0 0 1000 1000" xml:space="preserve">
<metadata> Svg Vector Icons : http://www.onlinewebfonts.com/icon </metadata>
<g><g><g id="play_movie"><g><path d="M624.9,404.8l-168.6-83.4c-8.6-4.2-17-6.3-25-6.3c-21.2,0-42.6,15.8-42.6,51.3v155.9c0,35.5,21.6,51.3,43.1,51.3c8,0,16.5-2.1,25.3-6.4l166.6-83.3c18.8-9.2,29.6-23.8,29.6-40.1C653.3,427.8,642.9,413.6,624.9,404.8z M431.7,551.3l0-22.3h0V551.3z M437.3,527.3c-1.4,0.7-2.6,1.1-3.5,1.4c-0.3-1.4-0.6-3.5-0.6-6.4V366.4c0-2.8,0.3-4.8,0.6-6.2c0.8,0.3,1.7,0.6,2.9,1.2L603.7,444L437.3,527.3z M923.2,99.1H76.8c-36.8,0-66.8,30-66.8,66.8v534.5c0,36.8,30,66.8,66.8,66.8h334.1v89.1h-89.1v44.5h356.4v-44.5h-89.1v-89.1h334.1c36.8,0,66.8-30,66.8-66.8V165.9C990,129.1,960,99.1,923.2,99.1z M544.5,856.4h-89.1v-89.1h89.1V856.4z M945.5,700.5c0,12.3-10,22.3-22.3,22.3H76.8c-12.3,0-22.3-10-22.3-22.3V165.9c0-12.3,10-22.3,22.3-22.3h846.4c12.3,0,22.3,10,22.3,22.3L945.5,700.5L945.5,700.5z"/></g></g></g><g></g><g></g><g></g><g></g><g></g><g></g><g></g><g></g><g></g><g></g><g></g><g></g><g></g><g></g><g></g></g>
</svg>